<svg width="1em" height="1em" viewBox="0 0 16 16" fill="none" xmlns="http://www.w3.org/2000/svg">
<path d="M8 16C9.58225 16 11.129 15.5308 12.4446 14.6518C13.7602 13.7727 14.7855 12.5233 15.391 11.0615C15.9965 9.59966 16.155 7.99113 15.8463 6.43928C15.5376 4.88743 14.7757 3.46197 13.6569 2.34315C12.538 1.22433 11.1126 0.4624 9.56072 0.153718C8.00888 -0.154964 6.40034 0.00346249 4.93853 0.608963C3.47672 1.21446 2.2273 2.23984 1.34824 3.55544C0.469192 4.87103 2.38913e-07 6.41775 0 8L1.8559 8C1.8559 6.78481 2.21624 5.59691 2.89136 4.58652C3.56649 3.57613 4.52607 2.78862 5.64875 2.32359C6.77144 1.85855 8.00682 1.73688 9.19866 1.97395C10.3905 2.21102 11.4853 2.79619 12.3445 3.65546C13.2038 4.51473 13.789 5.60951 14.026 6.80135C14.2631 7.99318 14.1414 9.22856 13.6764 10.3512C13.2114 11.4739 12.4239 12.4335 11.4135 13.1086C10.4031 13.7838 9.21519 14.1441 8 14.1441V16Z" fill="#D3D3D3"><animateTransform attributeName="transform" type="rotate" dur=".9s" values="0 8 8;360 8 8;" repeatCount="indefinite"/></path>
</svg>