<svg width="340" height="92" viewBox="0 0 340 92" fill="none" xmlns="http://www.w3.org/2000/svg">
<path d="M47.2634 60.4308C43.559 60.7918 39.865 61.1741 36.1816 61.5776C35.2134 58.1159 34.3189 54.6224 33.498 51.097C26.4048 52.2862 19.701 53.8047 13.3866 55.6524C11.5975 59.2839 9.5032 62.7881 7.10372 66.1648C4.53586 67.0356 2.16795 67.9912 0 69.0319C5.72508 50.0032 14.6495 26.9926 26.7731 0C29.8041 0.148661 32.8245 0.30794 35.8343 0.477838C38.2338 22.0762 42.0435 42.0605 47.2634 60.4308ZM16.5122 45.777C21.5427 44.2904 26.6048 43.0586 31.6984 42.0817C31.3406 39.8518 30.9828 37.59 30.6249 35.2964C30.2777 33.1302 30.1198 31.6648 30.0566 31.0596C29.2673 23.7008 29.0148 16.9792 29.1726 11.1177C27.2783 16.1828 23.9632 24.3061 19.7326 35.2964C19.3958 36.2946 19.0696 37.2821 18.7538 38.259C17.954 40.7862 17.2068 43.2922 16.5122 45.777ZM56.6719 1.97507C64.8386 2.61219 73.0157 3.27054 81.2034 3.95014C86.0024 19.4321 91.075 34.2133 96.4212 48.2936C98.4839 48.2512 100.547 48.2087 102.609 48.1662C105.493 53.7941 108.345 59.4114 111.165 65.018C107.461 65.4003 103.746 65.7719 100.02 66.133C98.7154 62.8624 97.4105 59.6025 96.1055 56.3532C84.2344 57.2452 72.3527 58.1902 60.4606 59.1884C60.9236 62.7775 61.4077 66.356 61.9129 69.9238C58.1874 70.2849 54.4724 70.6565 50.7679 71.0388C50.3259 64.5189 49.9997 57.9035 49.7892 51.1925C51.3047 51.0439 52.8201 50.9058 54.3356 50.7784C55.7879 48.0388 56.8614 44.8532 57.5559 41.1898C58.2505 37.3989 58.3452 32.0471 57.9664 24.9432C57.5665 17.3403 57.135 9.68421 56.6719 1.97507ZM65.7015 25.2299C66.5224 32.3338 66.8381 37.6537 66.554 41.3172C66.2698 44.9169 65.67 47.7839 64.6912 49.982C71.9528 49.5148 79.2039 49.09 86.4444 48.7078C83.0557 37.1971 79.8037 25.283 76.6886 12.9654C72.5422 12.7318 68.3852 12.5194 64.2177 12.3283C64.7228 16.6607 65.2174 20.9612 65.7015 25.2299ZM120.479 12.4238C124.752 13.8467 129.014 15.2802 133.266 16.7244C142.253 33.6717 151.493 50.205 160.986 66.3241C158.481 65.326 155.987 64.3278 153.504 63.3296C148.536 55.5143 143.59 47.5397 138.665 39.4058C137.244 36.8892 135.129 33.0665 132.382 27.874C131.393 25.9626 130.414 24.0512 129.446 22.1399C130.614 25.8989 132.35 31.3144 134.592 38.2271C137.37 45.639 140.264 52.711 143.274 59.4432C140.98 58.6362 138.654 57.8717 136.297 57.1496C128.551 49.6741 121.068 41.7632 113.849 33.4169C112.302 31.3781 110.534 29.0526 108.576 26.4404C105.388 21.8532 102.767 17.9349 100.652 14.6219C103.588 20.8657 106.524 26.9501 109.492 32.7798C114.144 40.7862 119.037 48.2512 124.173 55.1745C120.953 55.1533 117.69 55.1851 114.386 55.2701C105.861 39.9155 97.863 23.0743 90.3909 4.74654C93.927 5.08633 97.5473 5.54293 101.252 6.11634C106.661 14.4838 112.144 22.5222 117.701 30.2313C123.447 37.4945 128.246 43.2285 131.971 47.5291C130.046 43.356 128.088 38.2909 126.099 32.2701C124.12 25.6865 122.247 19.0711 120.479 12.4238ZM168.153 28.5429C171.142 29.5623 174.131 30.5711 177.12 31.5693C185.623 47.8583 193.916 64.9543 201.998 82.8573C199.494 81.8804 196.989 80.8929 194.484 79.8947C191.664 73.7147 188.812 67.609 185.928 61.5776C181.697 53.072 178.225 46.0319 175.415 40.2341C175.73 43.8975 175.983 49.0263 176.235 55.5886C176.509 61.4077 176.835 67.1736 177.214 72.8864C174.478 71.7821 171.742 70.6777 169.005 69.5734C159.807 53.1145 150.757 36.4751 141.853 19.6551C144.527 20.5259 147.2 21.4178 149.873 22.331C153.009 28.4261 156.187 34.5319 159.408 40.6482C164.049 49.2812 167.49 55.8753 169.763 60.4308C169.195 56.4488 168.784 51.7978 168.595 46.5416C168.406 40.4677 168.258 34.4681 168.153 28.5429ZM213.996 39.6925C217.216 39.2678 220.447 38.8218 223.688 38.3546C231.645 54.5374 239.211 72.3236 246.389 91.7133C243.295 91.8407 240.211 91.9363 237.138 92C234.212 82.8042 231.129 74.0332 227.887 65.687C221.236 65.1773 214.69 64.3915 208.25 63.3296C211.617 71.4423 214.869 79.916 218.005 88.7507C215.374 87.8587 212.754 86.9349 210.144 85.9792C202.377 67.5665 194.242 50.3961 185.739 34.4681C188.475 35.4026 191.222 36.3264 193.979 37.2396C197.41 42.9949 200.809 48.9095 204.177 54.9834C210.66 56.024 217.258 56.7567 223.973 57.1814C220.689 51.1288 217.363 45.2992 213.996 39.6925ZM297.82 87.5083C294.284 87.8693 290.747 88.2198 287.211 88.5596C279.024 80.2345 270.931 72.0794 262.932 64.0942C260.533 64.3066 258.144 64.5083 255.766 64.6994C259.028 73.0882 262.28 81.6574 265.521 90.4072C262.406 90.662 259.281 90.8957 256.145 91.108C248.862 71.8246 241.411 53.7622 233.791 36.9211C237.033 36.4751 240.264 36.0185 243.484 35.5512C246.347 42.1348 249.22 48.8458 252.103 55.6842C254.545 55.4506 256.997 55.2064 259.46 54.9515C261.291 47.4123 263.238 39.8837 265.3 32.3657C268.984 31.8135 272.646 31.2719 276.288 30.741C273.551 39.9155 271.047 49.1431 268.773 58.4238C278.287 67.8744 287.969 77.5693 297.82 87.5083ZM340 78.0152C338.021 79.4169 335.843 80.6699 333.465 81.7742C329.739 77.2932 326.182 73.0351 322.793 69C317.826 70.8901 312.385 72.4298 306.47 73.6191C307.249 77.8241 308.028 82.061 308.807 86.3297C305.755 86.6694 302.682 86.9986 299.588 87.3172C297.041 66.8444 295.946 46.9875 296.304 27.7465C300.472 27.1094 304.629 26.4723 308.775 25.8352C313.258 42.7613 323.667 60.1547 340 78.0152ZM304.734 63.4571C308.796 62.5226 312.511 61.4395 315.879 60.2078C314.553 58.2327 313.279 56.2576 312.059 54.2826C311.017 52.4668 310.385 51.2244 310.164 50.7147C307.386 44.7576 305.271 39.5332 303.66 35.1371C303.408 39.0554 303.155 45.3629 303.503 54.1551C303.587 54.9834 303.682 55.8223 303.787 56.6718C304.06 58.8804 304.376 61.1422 304.734 63.4571Z" fill="#E5C61E"/>
</svg>
