<svg width="101" height="25" viewBox="0 0 101 25" fill="none" xmlns="http://www.w3.org/2000/svg">
<path d="M100.945 19.6138C100.948 19.3232 100.945 19.3113 100.879 19.2634C100.642 19.0937 100.488 19.2315 100.352 19.7348L100.303 19.9146L100.3 19.5896L100.298 19.2646H100.104H99.9105V21.7678V24.2711H100.118H100.325V22.8772C100.325 21.4095 100.345 21.0375 100.441 20.7094C100.531 20.4009 100.639 20.317 100.822 20.4119L100.901 20.4528L100.922 20.1837C100.933 20.0357 100.944 19.7792 100.945 19.6138Z" fill="white"/>
<path fill-rule="evenodd" clip-rule="evenodd" d="M96.5643 18.5108L96.565 19.721L96.6313 19.5596C96.7763 19.2071 96.9413 19.0638 97.1304 19.1262C97.3962 19.2139 97.6036 19.69 97.7112 20.4594C97.9319 22.0385 97.7148 23.9313 97.2679 24.3236C97.0856 24.4837 96.8349 24.4185 96.7109 24.1786C96.6865 24.1314 96.6381 24.0116 96.6033 23.9123L96.5401 23.7317L96.538 23.9991L96.536 24.2666L96.3457 24.2757L96.1554 24.2849L96.1438 22.7083C96.1374 21.8411 96.1375 20.2697 96.144 19.2162L96.1558 17.3007H96.3597H96.5637L96.5643 18.5108ZM96.8318 23.2536C96.4288 22.8083 96.4603 20.5379 96.8736 20.2485C96.9511 20.1941 96.9783 20.1941 97.0558 20.2483C97.2414 20.3783 97.3637 20.9577 97.3649 21.7125C97.3661 22.5156 97.2233 23.2179 97.0449 23.2864C96.9652 23.317 96.8769 23.3034 96.8318 23.2536Z" fill="white"/>
<path fill-rule="evenodd" clip-rule="evenodd" d="M99.0873 19.188C99.1938 19.2692 99.3306 19.5105 99.3973 19.7348C99.5131 20.1237 99.523 20.3282 99.5232 22.3487L99.5234 24.2849H99.3505H99.1775L99.1637 24.0498L99.1499 23.8147L99.1006 23.9559C98.9303 24.4437 98.5913 24.5953 98.3264 24.3021C98.2068 24.1698 98.1252 23.9563 98.0679 23.6261C98.0051 23.2643 98.027 22.436 98.1073 22.1373C98.244 21.6289 98.4623 21.3744 98.9908 21.1073L99.1361 21.0339V20.8873C99.1361 20.5722 99.0335 20.2409 98.9165 20.1783C98.7283 20.0776 98.5556 20.2598 98.3866 20.7375C98.3503 20.8402 98.3124 20.9242 98.3024 20.9242C98.2924 20.9242 98.2498 20.8277 98.2078 20.7098C98.1657 20.5919 98.1091 20.4349 98.0819 20.3609C98.0329 20.2273 98.033 20.2248 98.1034 20.0013C98.2467 19.5462 98.4322 19.2392 98.6243 19.1391C98.7475 19.0749 98.9698 19.0984 99.0873 19.188ZM98.4735 22.5776C98.5185 22.4153 98.6626 22.2522 98.9009 22.0938C99.0218 22.0134 99.126 21.9476 99.1323 21.9476C99.1386 21.9476 99.1372 22.1188 99.1291 22.328C99.112 22.7695 99.057 23.0381 98.9426 23.2384C98.8012 23.486 98.5824 23.4964 98.4837 23.2602C98.4375 23.1495 98.4312 22.73 98.4735 22.5776Z" fill="white"/>
<path d="M79.494 1.71343C78.9508 1.21756 78.4759 0.941907 77.71 0.677879C76.6547 0.314085 75.7286 0.39303 75.346 0.879381C74.7977 1.57656 75.1099 2.80639 76.0801 3.77069C76.8171 4.50313 77.6217 4.8576 78.5449 4.85642C79.1432 4.85563 79.5876 4.67712 79.9127 4.30675C80.2375 3.93692 80.3391 3.64229 80.3037 3.17334C80.2634 2.63904 80.0125 2.18671 79.494 1.71343Z" fill="#E5C61E"/>
<path d="M47.7079 4.38537C46.3031 3.32151 45.0978 2.73828 43.6083 2.40162C41.9924 2.03638 40.4029 2.41429 39.5751 3.36059C38.7352 4.32075 38.3558 6.02833 38.5498 7.97472C38.739 9.87184 39.2011 10.8652 40.6697 12.5317C41.7888 13.8015 43.4047 15.1032 45.3968 16.3397C46.7419 17.1747 47.0892 17.5342 47.0892 18.092C47.0892 18.6151 46.7513 18.9186 46.0288 19.0445C45.0756 19.2104 43.5239 18.7835 42.3746 18.0389C41.4644 17.4493 40.8151 16.7809 39.9834 15.577C39.7267 15.2055 39.4937 14.8875 39.4657 14.8701C39.4376 14.8528 38.862 15.5513 38.1865 16.4225L36.9584 18.0064L37.5083 18.5639C38.3466 19.4134 39.4462 20.2135 40.292 20.5894C41.0792 20.9393 42.8534 21.4776 43.9366 21.6953C45.1435 21.9377 47.202 22.0227 48.1729 21.87C50.1809 21.5542 51.14 20.8248 51.6302 19.2407C51.7594 18.8231 51.7823 18.6083 51.7809 17.8286C51.7797 17.1766 51.7466 16.7849 51.667 16.4822C51.3577 15.305 50.6239 14.3836 49.0267 13.1669C48.7016 12.9192 48.214 12.5348 47.943 12.3126C47.6721 12.0904 47.0367 11.5875 46.531 11.195C43.6475 8.95727 43.093 8.46494 42.7664 7.85321C42.4932 7.34137 42.5181 6.60814 42.8179 6.33688C43.3146 5.88738 44.5987 6.22549 46.0342 7.18388C47.2201 7.97557 48.0409 8.83845 49.5598 10.8901C49.5744 10.9098 50.9324 9.87211 51.9324 9.07707L52.211 8.85566L51.5956 8.15349C50.6709 7.09856 48.4569 4.95251 47.7079 4.38537Z" fill="#E5C61E"/>
<path d="M59.4575 3.28479C59.4445 3.26897 58.4223 3.05472 57.1859 2.80876C55.9495 2.56286 54.9053 2.36155 54.8655 2.36142C54.8151 2.36135 54.7797 3.02576 54.7489 4.5451C54.6853 7.68277 54.5856 12.2233 54.5459 13.7894C54.4261 18.5163 54.3643 22.1373 54.4028 22.1757C54.4464 22.2193 57.9342 22.0221 58.2476 21.9583L58.4049 21.9262L58.3625 20.4029C58.2961 18.017 58.3027 13.3208 58.3727 13.0959C58.7013 12.0409 59.5985 11.117 60.956 10.4356C62.4182 9.7016 63.2243 9.64788 63.4739 10.2678C63.5396 10.4308 63.5429 11.3415 63.49 14.7265C63.4536 17.0662 63.4386 18.9953 63.4569 19.0135C63.4845 19.0412 68.5057 16.0904 68.6444 15.965C68.6896 15.9241 68.8372 14.2359 69.0901 10.8667C69.1633 9.89135 69.2566 8.73869 69.2976 8.30521C69.3624 7.61926 69.3578 7.46196 69.2624 7.09232C69.0737 6.36178 68.6802 5.8774 67.9751 5.50776C67.7089 5.36825 67.5946 5.35276 66.8257 5.35203C66.1303 5.35138 65.8792 5.37863 65.4722 5.49902C63.614 6.04875 61.1376 7.50642 59.437 9.05165C59.1442 9.31771 58.8941 9.5246 58.8812 9.5114C58.8684 9.4982 58.9981 8.09832 59.1695 6.40053C59.3409 4.70273 59.4704 3.30069 59.4575 3.28479Z" fill="#E5C61E"/>
<path d="M95.9343 6.95394C95.3593 4.7451 94.187 3.30923 92.5389 2.79549C91.8824 2.59077 91.7258 2.57107 91.2367 2.63149C90.5355 2.71812 90.0352 2.90288 89.3848 3.31547C88.897 3.62488 87.8576 4.58812 87.5815 4.9866C87.4797 5.13339 87.382 5.23913 87.3644 5.22146C87.3467 5.20386 87.3379 4.93694 87.3447 4.62839C87.3515 4.31983 87.3419 4.0428 87.3233 4.01278C87.3047 3.9827 86.4239 4.27983 85.366 4.67298C84.308 5.0662 83.4092 5.39906 83.3686 5.41279C83.2953 5.43755 83.2409 5.7488 83.0474 7.25435C82.9917 7.68783 82.8724 8.60405 82.7823 9.29039C82.6922 9.97673 82.472 11.6614 82.2929 13.0341C82.1138 14.4068 81.8956 16.0766 81.808 16.7449C81.7204 17.4132 81.6547 17.9663 81.6619 17.9739C81.6839 17.9972 86.5043 17.4814 86.533 17.4527C86.5477 17.438 86.7376 15.9501 86.9549 14.1463C87.563 9.09966 87.6075 8.76411 87.7055 8.48629C87.9923 7.67358 88.495 7.05016 89.1062 6.74922C89.5071 6.55192 89.6023 6.53188 90.1402 6.53188C90.673 6.53188 90.7679 6.55132 91.0811 6.72485C91.8416 7.14618 92.2343 7.85748 92.3705 9.06051C92.3976 9.29991 92.2781 10.7508 92.0161 13.3625C91.7987 15.5299 91.6131 17.3901 91.6037 17.4964L91.5865 17.6896L93.2613 18.0969C94.1825 18.3209 95.011 18.5237 95.1024 18.5475L95.2687 18.591L95.4136 17.0933C95.4933 16.2695 95.6944 14.2064 95.8606 12.5086C96.2126 8.91313 96.2238 8.06614 95.9343 6.95394Z" fill="#E5C61E"/>
<path d="M35.5273 10.3412C35.5995 7.49473 35.6433 5.96974 35.7017 4.28239C35.7233 3.6593 35.7156 3.15048 35.6846 3.1518C35.6536 3.15311 34.7933 3.58902 33.7729 4.12056L31.9174 5.08695L31.9521 5.51386C32.2466 9.13999 32.5777 14.0466 32.5503 14.3805C32.5052 14.9294 32.286 15.5655 32.0235 15.9097C31.9077 16.0615 31.6618 16.2619 31.4654 16.3644C31.1516 16.5284 31.0471 16.5478 30.4815 16.5474C29.6425 16.5467 29.0809 16.4507 28.5946 16.2249C28.0685 15.9805 27.9109 15.7549 27.8422 15.1476C27.78 14.5978 27.8038 14.7446 27.1582 10.9324C26.883 9.30681 26.6437 7.92966 26.6264 7.87206C26.6 7.78385 26.4223 7.761 25.4962 7.72704C24.8917 7.70484 23.6204 7.65204 22.671 7.60954C21.7216 7.56711 20.9289 7.54826 20.9094 7.56764C20.8771 7.59995 21.4589 13.5022 21.6069 14.6432C21.642 14.9141 21.6971 15.4971 21.7293 15.9386C21.8147 17.1088 22.0128 17.4347 23.0508 18.1113C24.2401 18.8864 25.0051 19.12 27.1886 19.3744C28.453 19.5217 29.5868 19.5468 30.1441 19.4398C30.8614 19.3021 31.5893 19.0045 32.0441 18.6628C32.1826 18.5588 32.2548 18.5315 32.2317 18.5919C32.1635 18.7695 31.9716 19.7765 32.0004 19.8053C32.0242 19.8291 35.0703 20.2916 35.2027 20.2916C35.2632 20.2916 35.3174 18.6287 35.5273 10.3412Z" fill="#E5C61E"/>
<path d="M80.3037 6.06478C80.296 6.05749 79.8465 5.98885 79.3046 5.91221C78.7628 5.83563 77.7628 5.6891 77.0825 5.5867C76.2198 5.45679 75.839 5.42257 75.8241 5.47361C75.8124 5.5138 75.7534 6.03437 75.6931 6.6304C75.6328 7.22644 75.4542 8.89632 75.2962 10.3412C75.0463 12.6271 74.7591 15.288 74.6319 16.4945L74.5926 16.8679L74.9454 16.9659C76.2704 17.3336 77.0391 17.5471 77.7121 17.734C78.1367 17.8521 78.5003 17.9325 78.52 17.9127C78.5572 17.8754 78.6138 17.5135 79.2772 13.0669C80.1535 7.19373 80.3171 6.07752 80.3037 6.06478Z" fill="#E5C61E"/>
<path fill-rule="evenodd" clip-rule="evenodd" d="M11.7213 4.09475C13.7578 4.79028 15.1009 6.49399 17.2099 11.0568C18.1681 13.1298 18.3559 14.014 18.0702 15.1083C17.9071 15.7329 17.585 16.2274 16.877 16.9399C15.9941 17.8284 14.91 18.5552 13.8558 18.9653C12.9401 19.3215 12.495 19.4017 11.4257 19.403C10.4379 19.4043 10.3886 19.3977 9.76521 19.1821C8.92853 18.8929 8.1331 18.3676 7.35776 17.5922C7.02726 17.2617 6.74859 17.0024 6.73848 17.0159C6.72829 17.0294 6.84711 18.0749 7.0025 19.3392C7.5144 23.5052 7.61693 24.385 7.59322 24.4086C7.58034 24.4215 7.12959 24.316 6.59149 24.1741C6.05338 24.0322 5.33236 23.8477 4.98919 23.764C4.64602 23.6803 4.35592 23.6066 4.34442 23.6002C4.33299 23.5938 4.06246 22.4848 3.7432 21.1355C3.424 19.7864 3.02599 18.1209 2.85877 17.4345C2.69155 16.7482 2.42444 15.6399 2.26517 14.9716C2.10589 14.3033 1.74059 12.7812 1.45338 11.5891C0.390893 7.17921 -0.0270864 5.38526 0.00135243 5.35709C0.07176 5.28714 4.52129 4.82706 4.57811 4.88388C4.60168 4.90739 4.63347 5.27874 4.64884 5.70913L4.67669 6.49156L4.95477 6.15016C5.41781 5.58178 6.3092 4.88841 7.05807 4.5141C7.44544 4.32048 8.30196 4.03426 8.76571 3.94349C8.94633 3.90809 9.56699 3.88727 10.145 3.89718C11.0905 3.91347 11.2485 3.93324 11.7213 4.09475ZM5.38884 9.78298C5.64158 8.68582 6.60666 7.68218 7.68891 7.39116C8.10525 7.27918 9.09969 7.26145 9.52102 7.35845C10.065 7.48377 10.6488 7.82306 11.1093 8.28163C11.46 8.63091 11.6143 8.85527 11.8774 9.39863C12.2437 10.155 12.3694 10.5855 12.4784 11.4578C12.5927 12.3723 12.4614 13.3724 12.1456 13.9914C11.6696 14.9245 10.5237 15.4273 9.37574 15.2068C8.74476 15.0855 8.27161 14.8931 7.74901 14.5451C6.86011 13.9531 6.17318 13.2011 5.74804 12.3546C5.37348 11.6088 5.22058 10.5138 5.38884 9.78298Z" fill="#E5C61E"/>
</svg>
