<svg width="141" height="45" viewBox="0 0 141 45" fill="none" xmlns="http://www.w3.org/2000/svg">
<g clip-path="url(#clip0_1590_7677)">
<path d="M24.0747 4.98847C26.9869 5.73482 29.8991 6.47201 32.8113 7.20006C33.5686 18.5159 34.0534 30.7684 34.2656 43.9574C32.3266 44.0232 30.3875 44.0854 28.4485 44.144C28.4192 37.3427 28.326 30.6055 28.1686 23.9324C28.0973 21.9787 28.0095 19.0921 27.8997 15.333C27.8485 13.9866 27.7955 12.6495 27.7406 11.3214C27.2467 14.0543 26.4125 18.1812 25.2162 23.8665C23.7784 30.6458 22.2363 37.4836 20.59 44.3799C18.8595 44.4275 17.1308 44.4769 15.404 44.5281C14.1455 37.5696 12.4168 30.6476 10.218 23.7623C9.65278 22.1488 8.99973 20.2995 8.28632 18.1757C7.33693 14.422 6.76071 11.0909 6.43144 8.27018C6.08022 13.7854 6.10766 19.1799 6.74973 24.1738C8.46559 30.6787 8.70705 37.5312 7.47412 44.7312C5.64851 44.7677 3.92534 44.7732 2.30461 44.7476C-0.281976 32.8171 -0.481367 17.7549 1.70644 -0.438965C4.80522 0.164694 7.84912 0.839694 10.8381 1.58604C11.932 7.83116 13.2034 13.961 14.6522 19.9757C16.293 25.7488 17.4839 30.4354 18.2302 34.1342C18.8668 30.1665 19.6955 25.5238 20.7656 20.2501C21.8888 14.9781 22.9918 9.89091 24.0747 4.98847Z" fill="#E5C61E"/>
<path d="M39.0347 6.58528C46.2713 4.94991 53.5078 3.30723 60.7444 1.65723C60.8798 3.90357 61.0115 6.16089 61.1395 8.42918C55.9408 9.32186 50.7402 10.2365 45.5377 11.1731C45.728 13.9682 45.9127 16.778 46.092 19.6024C50.9652 19.0023 55.8383 18.4243 60.7115 17.8682C60.8578 19.9792 61.006 22.0627 61.156 24.1188C56.2499 24.6347 51.342 25.1706 46.4322 25.7267C46.5932 29.056 46.7469 32.3963 46.8932 35.7475C52.4139 34.9536 57.9328 34.1761 63.4499 33.4152C63.6255 35.2883 63.7993 37.1615 63.9713 39.0347C56.2408 40.381 48.5158 41.7255 40.7963 43.0682C40.4158 30.256 39.8286 18.095 39.0347 6.58528Z" fill="#E5C61E"/>
<path d="M85.2587 5.98145C87.1648 6.74974 89.0727 7.51804 90.9825 8.28633C92.2886 18.3363 93.5489 28.2253 94.7635 37.9534C92.7953 37.9132 90.8288 37.8747 88.8642 37.8382C88.3264 33.3784 87.7904 28.8857 87.2562 24.3601C82.7892 23.9138 78.3075 23.568 73.8111 23.3229C74.3416 28.2583 74.905 33.0144 75.5014 37.5912C73.5148 37.6095 71.4696 37.7796 69.366 38.1016C68.1953 26.8699 67.2038 14.301 66.3916 0.394865C68.4038 0.0875482 70.3739 0.228402 72.302 0.817426C72.6093 6.49913 72.9404 11.9686 73.2953 17.226C77.7623 17.7199 82.2166 18.3345 86.6581 19.0699C86.1934 14.7747 85.727 10.4119 85.2587 5.98145Z" fill="#E5C61E"/>
<path d="M120.737 7.67222C123.58 6.9643 126.258 7.21125 128.854 8.58869C131.669 10.257 134.462 13.2862 137.02 17.5448C138.946 21.8198 139.659 26.4241 139.681 31.3411C140.713 34.2277 140.993 36.6862 140.395 38.9966C139.654 41.5923 138.183 43.4308 136.01 44.4295C133.842 45.3186 131.12 45.3076 127.855 44.4405C124.804 43.6393 122.016 42.3277 119.497 40.5497C117.022 38.7881 114.953 36.7576 113.296 34.4527C111.688 32.2192 110.535 29.8375 109.828 27.2637C108.346 27.0954 106.868 26.9253 105.393 26.7533C105.975 30.7301 106.482 34.5899 106.913 38.3326C104.901 38.2082 102.904 38.1241 100.921 38.0801C99.7135 28.8314 98.3909 19.6997 96.9531 10.685C98.8739 11.4423 100.793 12.1009 102.71 12.6606C103.35 15.5692 103.99 18.7448 104.631 22.1875C106.123 22.3155 107.62 22.4308 109.12 22.5332C109.07 20.2338 109.498 18.2088 110.376 16.3539C111.271 14.3838 112.588 12.6222 114.338 11.1021C116.095 9.46125 118.224 8.30332 120.737 7.67222ZM126.884 38.7826C128.771 39.2216 130.324 39.1228 131.537 38.4808C132.767 37.7948 133.573 36.6094 133.941 34.9356C134.32 33.2619 134.243 31.1436 133.743 28.4655C133.288 25.6448 132.492 22.9448 131.307 20.5247C130.099 18.1155 128.651 16.3265 127.015 15.185C125.446 14.1094 123.799 13.7088 122.065 13.9283C120.348 14.1533 118.943 14.8558 117.84 15.9917C116.726 17.0509 115.968 18.4448 115.584 20.1789C115.2 21.8362 115.217 23.735 115.623 25.9082C116.023 28.1033 116.731 30.0625 117.757 31.8186C118.811 33.5966 120.123 35.0948 121.698 36.3076C123.273 37.5204 125.001 38.3545 126.884 38.7826Z" fill="#E5C61E"/>
</g>
<defs>
<clipPath id="clip0_1590_7677">
<rect width="140.488" height="45" fill="white"/>
</clipPath>
</defs>
</svg>
